<svg xmlns="http://www.w3.org/2000/svg" width="102.544" height="102.864">
  <g transform="translate(-759.041 -781.571)">
    <path d="M816.776 839.076a8.889 8.889 0 01-12.571-12.571c3.471-3.471 2.492 3.136 5.963 6.608s10.079 2.487 6.608 5.963z" fill="#e72846"/>
    <circle cx="8.889" cy="8.889" r="8.889" transform="translate(801.407 824.074)" fill="none" stroke="#e72846" stroke-miterlimit="10"/>
    <g fill="#e72846">
      <path d="M810.731 789.2a5.657 5.657 0 01.537-6.437 4.034 4.034 0 013.345-1.176 4.135 4.135 0 013.116 1.715 5.165 5.165 0 01.741 3.308 5.1 5.1 0 01-1.277 3.129 4.055 4.055 0 01-3.359 1.187 4.014 4.014 0 01-3.103-1.726zm5.482-.333a4.141 4.141 0 00.874-2.372 4.049 4.049 0 00-.47-2.484 2.688 2.688 0 00-2.108-1.178 2.626 2.626 0 00-2.262.814 3.9 3.9 0 00-.887 2.371 3.987 3.987 0 00.482 2.485 2.882 2.882 0 004.371.364z"/>
      <path d="M829.109 786.545l-1 2.332 3.011 1.3-.514 1.194-3.011-1.295-1.522 3.539-1.207-.519 3.56-8.273 4.906 2.112-.519 1.206z"/>
      <path d="M841.6 793.771l-1.629 1.914 2.809 2.39-.8.943-2.809-2.391-1.8 2.114 3.38 2.876-.8.943-4.38-3.727 5.834-6.855 4.38 3.726-.8.943z"/>
      <path d="M847.567 812.678l1.934-3.037-.026-.043-1.217-1.982-2.759 1.7-.687-1.12 7.668-4.713 1.905 3.1a2.821 2.821 0 01-.915 4.025 2.861 2.861 0 01-2.121.394 2.5 2.5 0 01-.891-.376l-2.111 3.322zm1.745-5.709l1.237 2.012a1.622 1.622 0 001.125.733 1.732 1.732 0 001.095-.248 1.8 1.8 0 00.79-.984 1.5 1.5 0 00-.209-1.222l-1.237-2.013z"/>
      <path d="M859.912 824.851l-.693-2.907-7.552 1.8-.3-1.276 7.553-1.8-.693-2.906 1.2-.287 1.69 7.089z"/>
      <path d="M854.411 838.311l.289-3.69-1.968-.819.1-1.347 8.748 3.62-.147 1.87-9.2 2.214.1-1.346zm1.254-.316l4.526-1.1-4.3-1.78z"/>
      <path d="M848.675 859.876l-.883-.568 2.033-3.155.883.57z"/>
      <path d="M836.9 876.919l-3.9-6.709-3.521 2.045-.621-1.069 4.656-2.7 4.515 7.779z"/>
      <path d="M823.461 882.633l-2.417-8.668 1.265-.353 2.417 8.668z"/>
      <path d="M804.7 875.2l1.224.033-.165 6.161 3.077-6.082.6.015 2.734 6.227.165-6.149 1.237.034-.241 9-1.187-.033-3.068-6.86-3.431 6.686-1.187-.032z"/>
      <path d="M793.2 881.421l2.889-8.525 1.244.42-2.89 8.526z"/>
      <path d="M779.331 872.563l2.48 1.666 4.33-6.444 1.089.733-4.33 6.443 2.48 1.667-.691 1.027-6.049-4.065z"/>
      <path d="M777.394 861.823a5.665 5.665 0 01-5.16 3.9 4.038 4.038 0 01-3.109-1.71 4.144 4.144 0 01-.8-3.469 5.186 5.186 0 011.974-2.761 5.1 5.1 0 013.185-1.136 4.33 4.33 0 013.913 5.179zm-3.908-3.866a4.145 4.145 0 00-2.353.931 4.07 4.07 0 00-1.539 2.008 2.693 2.693 0 00.529 2.36 2.629 2.629 0 002.117 1.143 3.908 3.908 0 002.361-.92 4 4 0 001.531-2.019 2.885 2.885 0 00-2.646-3.5z"/>
      <path d="M759.2 840.886l9.368.146.343 1.253-5.974 3.642 6.993.084.343 1.253-7.988 4.905-.362-1.326 6.068-3.629-7.051-.015-.375-1.323 6.068-3.629-7.07-.035z"/>
      <path d="M766.23 827.216l-.32 3.685 1.959.835-.117 1.345-8.711-3.693.162-1.868 9.219-2.133-.117 1.343zm-1.256.3l-4.533 1.06 4.283 1.815z"/>
      <path d="M770.442 812.611l-6.1-2.743.543-1.208 8.207 3.692-.543 1.208-7.919 1.3 6.1 2.743-.543 1.208-8.207-3.691.543-1.208z"/>
      <path d="M779.268 801.155l-2.539 2.693 1.019 1.871-.926.982-4.541-8.3 1.286-1.364 8.555 4.047-.927.982zm-1.175-.54l-4.214-1.98 2.233 4.081z"/>
      <path d="M797.258 787.932l.332 1-3.557 1.185-.332-1z"/>
    </g>
  </g>
</svg>
